<svg width="24" height="24" viewBox="0 0 24 24" fill="none" xmlns="http://www.w3.org/2000/svg">
<path opacity="0.2" d="M12 24C18.6274 24 24 18.7216 24 12.2105C24 5.69935 18.6274 0.421021 12 0.421021C5.37258 0.421021 0 5.69935 0 12.2105C0 18.7216 5.37258 24 12 24Z" fill="black"/>
<path d="M12 23.5789C18.6274 23.5789 24 18.3006 24 11.7895C24 5.27833 18.6274 0 12 0C5.37258 0 0 5.27833 0 11.7895C0 18.3006 5.37258 23.5789 12 23.5789Z" fill="#5865F2"/>
<path opacity="0.2" d="M9.78887 6.31666C8.68694 6.50693 7.6322 6.83984 6.64824 7.29281C6.63973 7.29651 6.63383 7.30211 6.62899 7.31008C4.62885 10.3059 4.08007 13.2284 4.34886 16.1144C4.3501 16.1285 4.35799 16.142 4.36894 16.1505C5.68858 17.1221 6.96651 17.7119 8.22107 18.1028C8.24115 18.109 8.2627 18.1021 8.27547 18.0856C8.57224 17.6793 8.83716 17.3437 9.06398 16.8931C9.07736 16.8668 9.06458 16.8353 9.03719 16.8249C8.61759 16.6653 8.21868 16.471 7.83435 16.25C7.80395 16.2322 7.80056 16.1887 7.82849 16.1678C7.90937 16.107 7.99066 16.0433 8.06789 15.9795C8.08186 15.9678 8.10168 15.9656 8.11811 15.9729C10.643 17.1287 13.3766 17.1287 15.8717 15.9729C15.8882 15.9649 15.9065 15.9669 15.9211 15.9787C15.9984 16.0425 16.0799 16.107 16.1614 16.1678C16.1893 16.1887 16.1867 16.2322 16.1563 16.25C15.772 16.4753 15.3729 16.6659 14.9527 16.8249C14.9253 16.8353 14.9133 16.8668 14.9267 16.8931C15.1584 17.343 15.4222 17.6784 15.7135 18.0847C15.7257 18.1019 15.7479 18.109 15.7679 18.1028C17.0286 17.7119 18.3071 17.1221 19.6268 16.1505C19.6383 16.142 19.6465 16.1285 19.6477 16.1144C19.9694 12.7779 19.1073 9.88099 17.365 7.31172C17.3608 7.30314 17.3543 7.29649 17.3458 7.29281C16.3624 6.84045 15.3085 6.50754 14.206 6.31666C14.1859 6.31295 14.1653 6.32132 14.1549 6.33968C14.0193 6.58151 13.8701 6.61063 13.7649 6.8586C12.579 6.68061 11.3982 6.68061 10.2367 6.8586C10.1315 6.60512 9.97615 6.58151 9.83993 6.33968C9.82959 6.32188 9.80895 6.31358 9.78887 6.31666ZM9.21214 11.7895C10.054 11.7895 10.727 12.4567 10.7138 13.2632C10.7138 14.0755 10.0474 14.7369 9.21214 14.7369C8.38996 14.7369 7.71381 14.0755 7.71381 13.2632C7.71381 12.4509 8.37682 11.7895 9.21214 11.7895ZM14.7852 11.7895C15.6271 11.7895 16.2984 12.4567 16.2852 13.2632C16.2852 14.0755 15.6271 14.7369 14.7852 14.7369C13.9631 14.7369 13.2852 14.0755 13.2852 13.2632C13.2852 12.4509 13.9499 11.7895 14.7852 11.7895Z" fill="black"/>
<path d="M9.78887 5.89564C8.68694 6.08591 7.6322 6.41882 6.64824 6.87179C6.63973 6.87549 6.63383 6.88108 6.62899 6.88906C4.62885 9.88488 4.08007 12.8074 4.34886 15.6933C4.3501 15.7075 4.358 15.7209 4.36895 15.7295C5.68859 16.7011 6.96651 17.2909 8.22107 17.6818C8.24115 17.688 8.2627 17.6811 8.27548 17.6645C8.57224 17.2582 8.83716 16.9226 9.06398 16.4721C9.07736 16.4457 9.06458 16.4143 9.03719 16.4039C8.61759 16.2443 8.21869 16.05 7.83435 15.829C7.80395 15.8112 7.80056 15.7677 7.82849 15.7468C7.90937 15.686 7.99066 15.6223 8.06789 15.5585C8.08186 15.5468 8.10168 15.5445 8.11811 15.5519C10.643 16.7076 13.3766 16.7076 15.8717 15.5519C15.8882 15.5439 15.9065 15.5459 15.9211 15.5576C15.9984 15.6215 16.0799 15.686 16.1614 15.7468C16.1893 15.7677 16.1867 15.8112 16.1563 15.829C15.772 16.0543 15.3729 16.2449 14.9527 16.4039C14.9253 16.4143 14.9133 16.4457 14.9267 16.4721C15.1584 16.922 15.4222 17.2574 15.7135 17.6637C15.7257 17.6809 15.7479 17.688 15.7679 17.6818C17.0286 17.2909 18.3071 16.7011 19.6268 15.7295C19.6383 15.7209 19.6465 15.7075 19.6477 15.6933C19.9694 12.3568 19.1073 9.45997 17.365 6.8907C17.3608 6.88212 17.3543 6.87547 17.3458 6.87179C16.3624 6.41943 15.3085 6.08652 14.206 5.89564C14.1859 5.89193 14.1653 5.9003 14.1549 5.91866C14.0193 6.16049 13.8701 6.18961 13.7649 6.43758C12.579 6.25959 11.3982 6.25959 10.2367 6.43758C10.1315 6.1841 9.97615 6.16049 9.83993 5.91866C9.82959 5.90086 9.80895 5.89256 9.78887 5.89564ZM9.21214 11.3685C10.054 11.3685 10.727 12.0357 10.7138 12.8422C10.7138 13.6545 10.0474 14.3159 9.21214 14.3159C8.38996 14.3159 7.71381 13.6545 7.71381 12.8422C7.71381 12.0299 8.37682 11.3685 9.21214 11.3685ZM14.7852 11.3685C15.6271 11.3685 16.2984 12.0357 16.2852 12.8422C16.2852 13.6545 15.6271 14.3159 14.7852 14.3159C13.9631 14.3159 13.2852 13.6545 13.2852 12.8422C13.2852 12.0299 13.9499 11.3685 14.7852 11.3685Z" fill="white"/>
<path opacity="0.1" d="M12 0C8.8174 0 5.76515 1.2421 3.51472 3.45306C1.26428 5.66401 0 8.66271 0 11.7895C0.000174071 11.861 0.00101115 11.9326 0.00251116 12.0041C0.0575941 8.91369 1.34581 5.96812 3.58976 3.80168C5.83371 1.63524 8.85391 0.421226 12 0.421053C15.1447 0.421187 18.1636 1.63407 20.4074 3.79875C22.6511 5.96342 23.9402 8.9069 23.9975 11.9959C23.9989 11.9271 23.9998 11.8583 24 11.7895C24 8.66271 22.7357 5.66401 20.4853 3.45306C18.2348 1.2421 15.1826 0 12 0Z" fill="white"/>
</svg>
