<svg width="17" height="24" viewBox="0 0 17 24" fill="none" xmlns="http://www.w3.org/2000/svg">
<g clip-path="url(#clip0_166_8199)">
<path d="M4.4541 24C6.6621 24 8.4541 22.208 8.4541 20V16H4.4541C2.2461 16 0.454102 17.792 0.454102 20C0.454102 22.208 2.2461 24 4.4541 24Z" fill="#0ACF83"/>
<path d="M0.454102 12C0.454102 9.792 2.2461 8 4.4541 8H8.4541V16H4.4541C2.2461 16 0.454102 14.208 0.454102 12Z" fill="#A259FF"/>
<path d="M0.454102 4C0.454102 1.792 2.2461 0 4.4541 0H8.4541V8H4.4541C2.2461 8 0.454102 6.208 0.454102 4Z" fill="#F24E1E"/>
<path d="M8.4541 0H12.4541C14.6621 0 16.4541 1.792 16.4541 4C16.4541 6.208 14.6621 8 12.4541 8H8.4541V0Z" fill="#FF7262"/>
<path d="M16.4541 12C16.4541 14.208 14.6621 16 12.4541 16C10.2461 16 8.4541 14.208 8.4541 12C8.4541 9.792 10.2461 8 12.4541 8C14.6621 8 16.4541 9.792 16.4541 12Z" fill="#1ABCFE"/>
</g>
<defs>
<clipPath id="clip0_166_8199">
<rect width="16" height="24" fill="white" transform="translate(0.454102)"/>
</clipPath>
</defs>
</svg>
