<svg width="16" height="16" viewBox="0 0 16 16" fill="none" xmlns="http://www.w3.org/2000/svg">
<g clip-path="url(#clip0_43_3896)">
<path fill-rule="evenodd" clip-rule="evenodd" d="M7.99967 0.637817C3.8313 0.637817 0.451172 4.01719 0.451172 8.18632C0.451172 11.5216 2.61405 14.3509 5.6133 15.3492C5.99042 15.4192 6.12892 15.1854 6.12892 14.9861C6.12892 14.8061 6.12192 14.2114 6.11867 13.5807C4.01867 14.0373 3.57555 12.6901 3.57555 12.6901C3.23217 11.8176 2.73742 11.5856 2.73742 11.5856C2.05242 11.1171 2.78905 11.1268 2.78905 11.1268C3.54692 11.1799 3.94617 11.9047 3.94617 11.9047C4.61942 13.0584 5.71205 12.7249 6.1428 12.5322C6.21055 12.0443 6.40617 11.7112 6.62205 11.5227C4.94542 11.3321 3.1828 10.6847 3.1828 7.79232C3.1828 6.96819 3.4778 6.29482 3.96067 5.76607C3.88217 5.57607 3.6238 4.80832 4.03367 3.76857C4.03367 3.76857 4.66742 3.56569 6.10992 4.54232C6.71217 4.37494 7.35805 4.29082 7.99967 4.28794C8.64092 4.29082 9.28717 4.37469 9.89055 4.54207C11.3313 3.56544 11.9643 3.76832 11.9643 3.76832C12.3752 4.80794 12.1168 5.57582 12.0384 5.76582C12.5224 6.29457 12.8153 6.96794 12.8153 7.79207C12.8153 10.6913 11.0494 11.3296 9.36855 11.5166C9.63942 11.7508 9.88067 12.2103 9.88067 12.9144C9.88067 13.9244 9.87192 14.7373 9.87192 14.9859C9.87192 15.1868 10.0079 15.4222 10.3904 15.3481C13.3879 14.3488 15.5483 11.5203 15.5483 8.18632C15.5482 4.01744 12.1684 0.637817 7.99967 0.637817Z" fill="#181616"/>
<path d="M3.30972 11.4757C3.29309 11.5132 3.23409 11.5244 3.18034 11.4988C3.12534 11.4743 3.09472 11.4232 3.11247 11.3856C3.12872 11.3468 3.18784 11.3362 3.24247 11.3621C3.29747 11.3867 3.32872 11.4383 3.30959 11.4758L3.30972 11.4757ZM3.61547 11.8168C3.57959 11.8502 3.50922 11.8347 3.46147 11.7818C3.41197 11.7293 3.40272 11.6589 3.43934 11.6251C3.47659 11.5918 3.54484 11.6076 3.59434 11.6601C3.64359 11.7133 3.65334 11.7831 3.61559 11.8169L3.61547 11.8168ZM3.91322 12.2514C3.86697 12.2837 3.79122 12.2536 3.74447 12.1864C3.69822 12.1192 3.69822 12.0386 3.74572 12.0064C3.79234 11.9742 3.86697 12.0033 3.91447 12.0698C3.96047 12.1379 3.96047 12.2187 3.91322 12.2514ZM4.32084 12.6716C4.27959 12.7172 4.19134 12.7049 4.12684 12.6428C4.06097 12.5819 4.04259 12.4953 4.08397 12.4498C4.12597 12.4041 4.21459 12.4168 4.27947 12.4786C4.34534 12.5393 4.36522 12.6261 4.32109 12.6714L4.32084 12.6716ZM4.88334 12.9154C4.86497 12.9746 4.78022 13.0014 4.69459 12.9762C4.60922 12.9503 4.55334 12.8812 4.57084 12.8214C4.58834 12.7618 4.67372 12.7339 4.75984 12.7608C4.84522 12.7866 4.90109 12.8553 4.88334 12.9154ZM5.50122 12.9606C5.50334 13.0228 5.43084 13.0743 5.34122 13.0756C5.25084 13.0777 5.17772 13.0272 5.17684 12.9659C5.17684 12.9031 5.24784 12.8522 5.33809 12.8504C5.42772 12.8488 5.50134 12.8988 5.50134 12.9604L5.50122 12.9606ZM6.07597 12.8628C6.08672 12.9234 6.02434 12.9858 5.93522 13.0024C5.84772 13.0187 5.76647 12.9809 5.75522 12.9208C5.74447 12.8586 5.80797 12.7962 5.89547 12.7801C5.98472 12.7647 6.06472 12.8012 6.07597 12.8628Z" fill="#181616"/>
</g>
<defs>
<clipPath id="clip0_43_3896">
<rect width="16" height="16" fill="white"/>
</clipPath>
</defs>
</svg>
