<svg width="19" height="19" viewBox="0 0 19 19" fill="none" xmlns="http://www.w3.org/2000/svg">
<g clip-path="url(#clip0_181_8962)">
<path d="M18.4913 9.66838C18.4913 8.93093 18.4301 8.39279 18.2975 7.83472H9.6792V11.1632H14.738C14.636 11.9904 14.0853 13.2361 12.8613 14.0732L12.8442 14.1846L15.5691 16.2472L15.7579 16.2657C17.4918 14.701 18.4913 12.399 18.4913 9.66838Z" fill="#4285F4"/>
<path d="M9.6792 18.4381C12.1576 18.4381 14.2382 17.6408 15.7579 16.2656L12.8613 14.0731C12.0862 14.6013 11.0459 14.97 9.6792 14.97C7.2518 14.97 5.19157 13.4055 4.45716 11.2429L4.34951 11.2519L1.51606 13.3945L1.479 13.4951C2.98847 16.425 6.08904 18.4381 9.6792 18.4381Z" fill="#34A853"/>
<path d="M4.45726 11.2431C4.26348 10.685 4.15133 10.087 4.15133 9.4692C4.15133 8.85129 4.26348 8.25338 4.44706 7.69531L4.44193 7.57645L1.57297 5.39941L1.4791 5.44304C0.856977 6.65886 0.5 8.02419 0.5 9.4692C0.5 10.9142 0.856977 12.2795 1.4791 13.4953L4.45726 11.2431Z" fill="#FBBC05"/>
<path d="M9.6792 3.96802C11.4028 3.96802 12.5655 4.69551 13.2285 5.30346L15.8191 2.83196C14.2281 1.38695 12.1576 0.5 9.6792 0.5C6.08904 0.5 2.98847 2.51305 1.479 5.44292L4.44696 7.69519C5.19157 5.53265 7.2518 3.96802 9.6792 3.96802Z" fill="#EB4335"/>
</g>
<defs>
<clipPath id="clip0_181_8962">
<rect width="18" height="18" fill="white" transform="translate(0.5 0.5)"/>
</clipPath>
</defs>
</svg>
