<svg width="24" height="24" viewBox="0 0 24 24" fill="none" xmlns="http://www.w3.org/2000/svg">
<path fill-rule="evenodd" clip-rule="evenodd" d="M17.76 12.1359C17.76 11.7105 17.7218 11.3014 17.6509 10.9087H12V13.2295H15.2291C15.09 13.9795 14.6673 14.615 14.0318 15.0404V16.5458H15.9709C17.1055 15.5013 17.76 13.9632 17.76 12.1359Z" fill="#4285F4"/>
<path fill-rule="evenodd" clip-rule="evenodd" d="M11.9995 18C13.6195 18 14.9777 17.4628 15.9704 16.5464L14.0313 15.041C13.4941 15.401 12.8068 15.6137 11.9995 15.6137C10.4368 15.6137 9.11406 14.5583 8.64224 13.1401H6.6377V14.6946C7.62497 16.6555 9.65406 18 11.9995 18Z" fill="#34A853"/>
<path fill-rule="evenodd" clip-rule="evenodd" d="M8.64273 13.1401C8.52273 12.7801 8.45455 12.3956 8.45455 12.0001C8.45455 11.6047 8.52273 11.2202 8.64273 10.8602V9.30566H6.63818C6.23182 10.1156 6 11.032 6 12.0001C6 12.9683 6.23182 13.8846 6.63818 14.6946L8.64273 13.1401Z" fill="#FBBC05"/>
<path fill-rule="evenodd" clip-rule="evenodd" d="M11.9995 8.38631C12.8804 8.38631 13.6713 8.68903 14.2932 9.28356L16.0141 7.56269C14.975 6.59453 13.6168 6 11.9995 6C9.65406 6 7.62497 7.34451 6.6377 9.30538L8.64224 10.8599C9.11406 9.44174 10.4368 8.38631 11.9995 8.38631Z" fill="#EA4335"/>
</svg>
