<svg width="18" height="24" viewBox="0 0 18 24" fill="none" xmlns="http://www.w3.org/2000/svg">
<g clip-path="url(#clip0_166_8526)">
<path d="M11.4545 6H6V18H11.4545V6Z" fill="white"/>
<path d="M11.4541 0V6H17.4541L11.4541 0Z" fill="#EA4335"/>
<path d="M6 0H1.63636C0.732273 0 0 0.732273 0 1.63636V18H6V6H11.4545V0H6Z" fill="#FFBA00"/>
<path d="M6 18H0V22.3636C0 23.2677 0.732273 24 1.63636 24H6V18Z" fill="#00832D"/>
<path d="M11.4545 18H6V24H11.4545V18Z" fill="#00AC47"/>
<path d="M17.4541 18H11.4541V24H15.8177C16.7218 24 17.4541 23.2677 17.4541 22.3636V18Z" fill="#0066DA"/>
<path d="M11.4541 6V18H17.4541V6H11.4541Z" fill="#2684FC"/>
</g>
<defs>
<clipPath id="clip0_166_8526">
<rect width="17.4545" height="24" fill="white"/>
</clipPath>
</defs>
</svg>
