<svg width="16" height="16" viewBox="0 0 16 16" fill="none" xmlns="http://www.w3.org/2000/svg">
<g clip-path="url(#clip0_279_9633)">
<path d="M2.00008 12.6668H0.666748V12.0002C0.666748 10.7576 1.51659 9.71356 2.66675 9.4175M4.00008 7.2197C3.22329 6.94516 2.66675 6.2043 2.66675 5.33349C2.66675 4.46268 3.22329 3.72186 4.00008 3.4473M14.0001 12.6668H15.3334V12.0002C15.3334 10.7576 14.4835 9.71356 13.3334 9.4175M12.0001 3.4473C12.7769 3.72186 13.3334 4.46268 13.3334 5.33349C13.3334 6.2043 12.7769 6.94516 12.0001 7.2197M6.66675 9.3335H9.33341C10.8061 9.3335 12.0001 10.5274 12.0001 12.0002V12.6668H4.00008V12.0002C4.00008 10.5274 5.19399 9.3335 6.66675 9.3335ZM10.0001 5.3335C10.0001 6.43806 9.10468 7.3335 8.00008 7.3335C6.89548 7.3335 6.00008 6.43806 6.00008 5.3335C6.00008 4.22893 6.89548 3.3335 8.00008 3.3335C9.10468 3.3335 10.0001 4.22893 10.0001 5.3335Z" stroke="black" stroke-width="1.5" stroke-linecap="round" stroke-linejoin="round"/>
</g>
<defs>
<clipPath id="clip0_279_9633">
<rect width="16" height="16" fill="white"/>
</clipPath>
</defs>
</svg>
