<svg width="32" height="32" viewBox="0 0 32 32" fill="none" xmlns="http://www.w3.org/2000/svg">
<path d="M2.6665 16.2722C2.6665 13.221 2.6665 11.6954 3.35877 10.4306C4.05104 9.16594 5.31577 8.38101 7.84521 6.81117L10.5119 5.15615C13.1857 3.49671 14.5226 2.66699 15.9998 2.66699C17.477 2.66699 18.814 3.49671 21.4878 5.15615L24.1545 6.81115C26.684 8.38101 27.9486 9.16594 28.6409 10.4306C29.3332 11.6954 29.3332 13.221 29.3332 16.2722V18.3003C29.3332 23.5014 29.3332 26.1021 27.771 27.7178C26.209 29.3337 23.6948 29.3337 18.6665 29.3337H13.3332C8.30485 29.3337 5.7907 29.3337 4.2286 27.7178C2.6665 26.1021 2.6665 23.5014 2.6665 18.3003V16.2722Z" stroke="black" stroke-width="2"/>
<path d="M16 20V24" stroke="black" stroke-width="2" stroke-linecap="round"/>
</svg>
