<svg width="16" height="16" viewBox="0 0 16 16" fill="none" xmlns="http://www.w3.org/2000/svg">
<path d="M3.23547 14.2646L1.69885 12.2821C1.3741 11.8671 1.2081 11.4159 1.21097 10.8734L1.21935 2.59319C1.21935 2.48969 1.2271 2.38469 1.24522 2.28319C1.31847 1.88232 1.57185 1.63232 1.9806 1.59469L4.00397 1.43694L7.22772 1.19919L10.3106 0.97119C10.8551 0.92819 11.3252 1.07857 11.7681 1.40082C12.6758 2.06144 13.6006 2.69869 14.5211 3.34082C14.7496 3.50044 14.8482 3.70019 14.8477 3.98582L14.8433 13.4692V13.5942C14.8321 14.1728 14.5533 14.4848 13.9761 14.5312C13.3277 14.5834 12.6778 14.6172 12.0283 14.6567L8.11635 14.8929L4.64022 15.1001C4.1271 15.1342 3.72322 14.9741 3.44147 14.5332C3.38335 14.4413 3.30922 14.3593 3.23547 14.2646ZM4.03622 8.51557V12.7016L4.03722 13.4823C4.04397 13.8324 4.21547 14.0068 4.56547 14.0268C4.65335 14.0317 4.74222 14.0287 4.8306 14.0233L7.76085 13.8506L13.3565 13.5307C13.7052 13.5112 13.8663 13.3583 13.899 13.0127C13.9053 12.9506 13.9033 12.8877 13.9033 12.8252L13.9038 4.76557C13.9038 4.71869 13.9053 4.67182 13.9025 4.62494C13.8815 4.30419 13.7437 4.17332 13.425 4.19032L10.5411 4.35644C9.19032 4.43502 7.83957 4.51411 6.48885 4.59369L4.46297 4.71532C4.20472 4.73182 4.08797 4.84319 4.04897 5.09569C4.03976 5.16266 4.03567 5.23023 4.03672 5.29782L4.03622 8.51557ZM11.1827 1.92469C10.9381 1.79194 10.6725 1.74794 10.399 1.76307C9.9786 1.78607 9.55822 1.82069 9.13772 1.85107L3.1441 2.28657C2.96297 2.29969 2.78085 2.31282 2.6021 2.34519C2.5421 2.35594 2.46635 2.41644 2.44785 2.47119C2.4341 2.50969 2.49472 2.58744 2.5391 2.62994C2.62122 2.70844 2.71585 2.77432 2.80535 2.84519C3.01772 3.01269 3.24372 3.16544 3.4386 3.35057C3.80822 3.70157 4.23835 3.78269 4.7311 3.74707L8.61047 3.50382L12.7867 3.25332C12.8248 3.25144 12.863 3.23969 12.9468 3.22407C12.8702 3.14444 12.8257 3.08344 12.7677 3.04044C12.5631 2.88933 12.3566 2.7409 12.1481 2.59519C11.8278 2.36952 11.506 2.14602 11.1827 1.92469Z" fill="black"/>
<path d="M4.03677 8.50005L4.03727 5.29793C4.03727 5.23043 4.03927 5.16218 4.04952 5.0958C4.08852 4.8433 4.20527 4.73205 4.46352 4.71543L6.4894 4.5938L10.5416 4.35655L13.4254 4.19043C13.7443 4.17343 13.882 4.30468 13.9029 4.62505C13.9059 4.67193 13.9044 4.7188 13.9044 4.76568L13.9039 12.8253L13.8995 13.0128C13.8669 13.3584 13.7058 13.5113 13.357 13.5308L7.7614 13.8507L4.83115 14.0234L4.56615 14.0269C4.21602 14.0069 4.04452 13.8326 4.03777 13.4829L4.03677 12.7017V8.50005ZM9.75752 8.5083L8.14902 6.05768C8.0929 5.97218 8.03777 5.94393 7.93427 5.95518L7.24865 6.00143L5.9874 6.0938C5.6774 6.12218 5.4899 6.41368 5.57577 6.71593L6.24377 6.77305V12.1847L5.78877 12.3131C5.58702 12.3726 5.50065 12.5426 5.56852 12.7598L7.10702 12.6714L7.71302 12.6217C7.97427 12.5787 8.1149 12.4186 8.15002 12.1573L7.30877 11.9654V7.89505L7.37127 7.98255L9.30477 11.0016C9.58899 11.4424 9.88087 11.8783 10.1803 12.3091C10.3936 12.6153 10.7081 12.7091 11.0616 12.6328C11.2829 12.5856 11.4953 12.4957 11.712 12.4258C11.8249 12.3892 11.8634 12.3218 11.8629 12.1953L11.8591 6.6328C11.8591 6.30768 11.8591 6.30768 12.1808 6.2428C12.506 6.1773 12.5875 6.04743 12.5133 5.6998L10.5695 5.81793C10.358 5.83305 10.1979 6.0098 10.1658 6.21543C10.15 6.31455 10.1705 6.36918 10.2891 6.37605L10.8776 6.44105V10.2134C10.5049 9.64481 10.1315 9.0766 9.75752 8.5088V8.5083ZM11.1939 1.93018C11.513 2.15053 11.8312 2.37219 12.1484 2.59518C12.3569 2.74093 12.5635 2.8894 12.7681 3.04055C12.8261 3.08355 12.8706 3.14455 12.9473 3.22418L12.7871 3.25343L8.6109 3.50393L4.73152 3.74718C4.23877 3.7828 3.80865 3.70168 3.43902 3.35068C3.24415 3.16568 3.01815 3.0128 2.80565 2.8453C2.71627 2.77443 2.62165 2.70855 2.53952 2.62993C2.49515 2.58743 2.43452 2.50993 2.44827 2.47118C2.46677 2.41655 2.54302 2.35605 2.60252 2.3453C2.78127 2.31305 2.9634 2.2998 3.14452 2.28668L9.13827 1.85118L10.3995 1.76318C10.6729 1.74818 10.9385 1.79193 11.1939 1.93018Z" fill="white"/>
<path d="M9.76448 8.51746L10.8779 10.2133V6.44083L10.2895 6.37583C10.1707 6.36908 10.1502 6.31446 10.1659 6.21533C10.1981 6.00971 10.3584 5.83296 10.5696 5.81783L12.5135 5.69971C12.5877 6.04721 12.5062 6.17721 12.181 6.24258C11.8592 6.30708 11.8592 6.30708 11.8592 6.63271L11.8631 12.1952C11.8636 12.3217 11.8251 12.3891 11.7122 12.4257L11.0619 12.6327C10.7084 12.7085 10.3939 12.6152 10.1806 12.309C9.88131 11.8782 9.58944 11.4423 9.30511 11.0015L7.37136 7.98233C7.35773 7.96083 7.34211 7.94083 7.30886 7.89496V11.9653L8.15023 12.1572C8.11511 12.4185 7.97448 12.5785 7.71323 12.6216C7.51398 12.6542 7.30948 12.6591 7.10723 12.6713L5.56873 12.7597C5.50086 12.5425 5.58723 12.3725 5.78898 12.313L6.24398 12.1846V6.77296L5.57598 6.71583C5.49011 6.41358 5.67761 6.12208 5.98761 6.09371C6.40711 6.05458 6.82848 6.03071 7.24886 6.00146C7.47736 5.98583 7.70686 5.97996 7.93448 5.95508C8.03798 5.94383 8.09323 5.97208 8.14923 6.05758L9.76448 8.51746Z" fill="black"/>
</svg>
