<svg width="16" height="16" viewBox="0 0 16 16" fill="none" xmlns="http://www.w3.org/2000/svg">
<g clip-path="url(#clip0_43_3870)">
<path d="M3.40723 10.0899C3.40723 11.0062 2.65998 11.7545 1.7436 11.7545C0.827352 11.7545 0.0791016 11.0062 0.0791016 10.0899C0.0791016 9.17367 0.827477 8.42529 1.74373 8.42529H3.40735L3.40723 10.0899ZM4.24585 10.0899C4.24585 9.17367 4.99423 8.42529 5.91048 8.42529C6.82673 8.42529 7.5751 9.17354 7.5751 10.0899V14.2568C7.5751 15.173 6.82685 15.9214 5.91048 15.9214C4.99423 15.9214 4.24585 15.173 4.24585 14.2568V10.0899Z" fill="#DE1C59"/>
<path d="M5.91048 3.40686C4.99423 3.40686 4.24585 2.65961 4.24585 1.74324C4.24585 0.826985 4.99423 0.0787354 5.91048 0.0787354C6.82673 0.0787354 7.5751 0.82711 7.5751 1.74336V3.40699L5.91048 3.40686ZM5.91048 4.24549C6.82673 4.24549 7.5751 4.99386 7.5751 5.91011C7.5751 6.82636 6.82685 7.57474 5.91048 7.57474H1.7436C0.827352 7.57474 0.0791016 6.82649 0.0791016 5.91011C0.0791016 4.99386 0.827477 4.24549 1.74373 4.24549H5.91048Z" fill="#35C5F0"/>
<path d="M12.5927 5.91011C12.5927 4.99386 13.3399 4.24549 14.2563 4.24549C15.1726 4.24549 15.9209 4.99386 15.9209 5.91011C15.9209 6.82636 15.1726 7.57474 14.2563 7.57474H12.5927V5.91011ZM11.7541 5.91011C11.7541 6.82636 11.0057 7.57474 10.0894 7.57474C9.17318 7.57474 8.4248 6.82649 8.4248 5.91011V1.74324C8.4248 0.826985 9.17305 0.0787354 10.0894 0.0787354C11.0057 0.0787354 11.7541 0.82711 11.7541 1.74336V5.91011Z" fill="#2EB57D"/>
<path d="M10.0894 12.5932C11.0057 12.5932 11.7541 13.3404 11.7541 14.2568C11.7541 15.173 11.0057 15.9214 10.0894 15.9214C9.17318 15.9214 8.4248 15.173 8.4248 14.2568V12.5932H10.0894ZM10.0894 11.7545C9.17318 11.7545 8.4248 11.0062 8.4248 10.0899C8.4248 9.17367 9.17305 8.42529 10.0894 8.42529H14.2563C15.1726 8.42529 15.9209 9.17354 15.9209 10.0899C15.9209 11.0062 15.1726 11.7545 14.2563 11.7545H10.0894Z" fill="#EBB02E"/>
</g>
<defs>
<clipPath id="clip0_43_3870">
<rect width="16" height="16" fill="white"/>
</clipPath>
</defs>
</svg>
