<svg width="16" height="19" viewBox="0 0 16 19" fill="none" xmlns="http://www.w3.org/2000/svg">
<path d="M13.3333 10.3893H12.7289L10.9511 12.167H12.6489L14.2222 13.9448H1.77778L3.36 12.167H5.18222L3.40444 10.3893H2.66667L0 13.0559V16.6115C0 17.5893 0.791111 18.3893 1.76889 18.3893H14.2222C15.2 18.3893 16 17.5981 16 16.6115V13.0559L13.3333 10.3893ZM12.4444 5.90036L8.04444 10.3004L4.89778 7.1537L9.29778 2.7537L12.4444 5.90036ZM8.67556 0.869251L3.01333 6.53147C2.66667 6.87814 2.66667 7.43814 3.01333 7.78481L7.41333 12.1848C7.76 12.5315 8.32 12.5315 8.66667 12.1848L14.32 6.53147C14.6667 6.18481 14.6667 5.62481 14.32 5.27814L9.92 0.87814C9.58222 0.522584 9.02222 0.522584 8.67556 0.869251Z" fill="black"/>
</svg>
