<svg width="16" height="16" viewBox="0 0 16 16" fill="none" xmlns="http://www.w3.org/2000/svg">
<path d="M6.42578 0.59375C7.18473 0.443419 7.80929 0.474498 8.37891 0.68457C8.95302 0.896376 9.51817 1.30739 10.127 1.99609L10.2725 2.16113L10.4922 2.16504C11.4626 2.1822 12.1544 2.29613 12.6885 2.5127C13.2097 2.72414 13.6101 3.045 13.9785 3.5293C14.3483 4.01543 14.5174 4.43937 14.5791 4.88477C14.6429 5.34584 14.5965 5.86143 14.4795 6.54883L14.4434 6.76074L14.5723 6.93359C15.504 8.17649 15.7362 9.41232 15.2559 10.5566C14.7759 11.6998 13.9641 12.059 12.5303 12.708L12.377 12.7773L12.2969 12.9258C11.5945 14.2266 11.0601 15.0225 9.77246 15.3779C8.47756 15.7353 6.99727 15.3035 5.78906 14.0879L5.63086 13.9297L5.40723 13.9414C3.91221 14.0216 3.23571 14.0943 2.28516 13.457C1.32865 12.8156 0.330738 11.287 1.13184 9.22754L1.2168 9.00879L1.10254 8.80371C0.795424 8.24995 0.605618 7.77572 0.533203 7.30957C0.461912 6.85065 0.500113 6.3702 0.692383 5.79883C1.05181 4.73085 1.89871 4.10681 3.41211 3.39453L3.61133 3.30078L3.67676 3.0918C3.90298 2.36705 4.23143 1.82126 4.66699 1.42188C5.10165 1.0234 5.67217 0.743027 6.42578 0.59375Z" fill="#6858FF" stroke="#6858FF"/>
<path d="M5.96094 5.6781L9.83564 5.6781" stroke="white" stroke-width="2" stroke-linecap="round" stroke-linejoin="round"/>
<path d="M5.96094 10.2207L9.83564 10.2207" stroke="white" stroke-width="2" stroke-linecap="round" stroke-linejoin="round"/>
<path d="M5.96094 10.2207L9.83564 5.67819" stroke="white" stroke-width="2" stroke-linecap="round" stroke-linejoin="round"/>
</svg>
